<svg xmlns="http://www.w3.org/2000/svg" width="779.536" height="1080" viewBox="0 0 779.536 1080"><defs><style>.a,.b{fill:#0660ff;}.a{opacity:0.41;}.c{fill:#87acee;}.d{fill:#ebebeb;}.e{fill:#ffb8b8;}.f{fill:#2f2e41;}.g{fill:#3f3d56;}.h{fill:#ccc;}</style></defs><g transform="translate(-1140.464 0)"><path class="a" d="M788.4,2257.525c-164.691-126.732-242.269-375.35-175.255-600.6l142.624-479.4h583.686v1080Z" transform="translate(580.541 -1177.525)"/><path class="b" d="M958.46,1961.851,683.594,1673.136c-72.47-76.12-71.515-236.278,2.131-357.723L948.646,881.851H1409.4v1080Z" transform="translate(510.604 -881.851)"/><g transform="translate(1254 372)"><path class="c" d="M825.26,645.012c-7.18-6.067-11.541-15.651-10.4-24.981s8.228-17.908,17.417-19.889,19.664,3.5,22.455,12.479c1.536-17.306,3.306-35.337,12.507-50.074,8.331-13.344,22.761-22.893,38.4-24.6s32.1,4.743,41.857,17.087,12.141,30.288,5.31,44.459c-5.032,10.439-14.3,18.208-24.016,24.529a155,155,0,0,1-106.01,23.192Z" transform="translate(-395.884 -313.512)"/><path class="b" d="M955.235,545.814a255.756,255.756,0,0,0-75.149,101.615c-.717,1.756,2.135,2.521,2.844.784A252.912,252.912,0,0,1,957.321,547.9c1.472-1.2-.625-3.275-2.086-2.086Z" transform="translate(-419.087 -316.278)"/><path class="c" d="M345.537,620.353c9.862-8.333,15.852-21.5,14.281-34.312s-11.3-24.6-23.922-27.317-27.008,4.812-30.841,17.14c-2.11-23.769-4.541-48.535-17.178-68.776-11.443-18.328-31.262-31.443-52.741-33.789s-44.095,6.515-57.49,23.469-16.676,41.6-7.294,61.064c6.912,14.338,19.645,25.009,32.986,33.691a212.892,212.892,0,0,0,145.6,31.854" transform="translate(-165 -290.502)"/><path class="b" d="M215.608,484.1a348.319,348.319,0,0,1,48.542,48.2,353.3,353.3,0,0,1,38.282,56.656,351.846,351.846,0,0,1,16.393,34.71c.985,2.412-2.933,3.463-3.907,1.077a345.742,345.742,0,0,0-31.592-59.774,347.921,347.921,0,0,0-42.37-52.342,347.1,347.1,0,0,0-28.213-25.665c-2.023-1.647.859-4.5,2.865-2.865Z" transform="translate(-181.722 -294.3)"/><path class="c" d="M659.786,524.489H424.5V283.079a93.253,93.253,0,0,1,93.148-93.148h48.991a93.253,93.253,0,0,1,93.147,93.148Z" transform="translate(-257.221 -189.931)"/><path class="d" d="M610.795,524.49H424.5V283.08a92.427,92.427,0,0,1,17.789-54.757c.428-.583.855-1.159,1.295-1.728a93.124,93.124,0,0,1,19.825-19.242c.425-.309.852-.613,1.285-.918a92.929,92.929,0,0,1,20.288-10.61c.426-.161.86-.323,1.294-.478a92.841,92.841,0,0,1,20.053-4.729c.424-.058.859-.1,1.295-.149a94.3,94.3,0,0,1,20.051,0c.434.045.869.091,1.3.149a92.821,92.821,0,0,1,20.048,4.728c.434.155.868.317,1.295.479a92.7,92.7,0,0,1,20.052,10.453c.433.3.866.6,1.293.906a94.116,94.116,0,0,1,11.85,10.033,93.015,93.015,0,0,1,8.2,9.38c.439.568.865,1.143,1.293,1.726a92.427,92.427,0,0,1,17.79,54.758Z" transform="translate(-257.221 -189.932)"/><circle class="b" cx="10.314" cy="10.314" r="10.314" transform="translate(328.111 205.956)"/><path class="e" d="M588.169,490.978h-7.9l-3.76-30.483H588.17Z" transform="translate(-204.879 -163.651)"/><path class="f" d="M568.292,504.28h15.241v9.6H558.7a9.6,9.6,0,0,1,9.6-9.6Z" transform="translate(-198.549 -179.211)"/><path class="e" d="M649.169,490.978h-7.9l-3.76-30.483H649.17Z" transform="translate(-226.557 -163.651)"/><path class="f" d="M629.291,504.28h15.241v9.6H619.7a9.6,9.6,0,0,1,9.6-9.6Z" transform="translate(-220.228 -179.211)"/><path class="e" d="M697.439,482.148a6.925,6.925,0,0,1,2.908-10.213l26.865-74.046,13.219,7.215-30.674,70.761a6.962,6.962,0,0,1-12.318,6.284Z" transform="translate(-353.794 -263.835)"/><path class="e" d="M808.72,501.239a6.925,6.925,0,0,1-1.865-10.453l-8.322-78.327,15.044.687,3.458,77.045a6.962,6.962,0,0,1-8.315,11.048Z" transform="translate(-390.145 -269.012)"/><circle class="e" cx="15.833" cy="15.833" r="15.833" transform="translate(378.743 88.675)"/><path class="b" d="M787.865,473.907H740.133l.057-.371c.086-.555,8.507-55.72,2.3-73.768a7.615,7.615,0,0,1,3.912-9.4h0c8.878-4.181,25.919-9.328,40.3,3.165a18.2,18.2,0,0,1,6.1,15.082Z" transform="translate(-369.391 -259.494)"/><path class="b" d="M742.507,428.886l-21.489-4.36,10.073-23.87a9.023,9.023,0,0,1,17.473,4.511Z" transform="translate(-362.598 -262.412)"/><path class="b" d="M796.24,437.9l-1.292-29.615c-.98-5.567,2.207-10.83,7.108-11.69s9.69,3,10.674,8.612l4.856,27.672Z" transform="translate(-388.808 -263.333)"/><path class="f" d="M784.859,517.049c7.68,29.251,8.518,66.44,6.446,107.007l-10.314-1.289L762.3,545.412l-10.314,78.644-11.6-.645c-3.466-42.564-6.842-79.1-1.289-103.139Z" transform="translate(-367.974 -306.182)"/><path class="f" d="M777.058,351.538c-2.954,3.146-8.439,1.457-8.824-2.841a5.194,5.194,0,0,1,.006-1c.2-1.9,1.3-3.632,1.035-5.643a2.959,2.959,0,0,0-.542-1.385c-2.354-3.152-7.879,1.41-10.1-1.443-1.362-1.75.239-4.5-.806-6.459-1.38-2.581-5.466-1.308-8.028-2.721-2.851-1.573-2.68-5.947-.8-8.607,2.289-3.245,6.3-4.976,10.265-5.226a27.535,27.535,0,0,1,11.6,2.264c4.2,1.638,8.372,3.9,10.959,7.6,3.146,4.5,3.449,10.538,1.875,15.794C782.737,345.063,779.471,348.969,777.058,351.538Z" transform="translate(-372.051 -234.795)"/><path class="g" d="M742.182,708.728H266.263a.768.768,0,1,1,0-1.535H742.182a.768.768,0,1,1,0,1.535Z" transform="translate(-200.714 -373.755)"/><path class="b" d="M585.491,492.751h-83.8a4.168,4.168,0,0,1-4.19-4.135V301.566a4.168,4.168,0,0,1,4.19-4.135h83.8a4.168,4.168,0,0,1,4.19,4.135V488.615A4.168,4.168,0,0,1,585.491,492.751Z" transform="translate(-283.164 -228.134)"/><rect class="h" width="92.181" height="1.289" transform="translate(214.336 129.82)"/><rect class="h" width="92.181" height="1.289" transform="translate(214.658 203.378)"/><rect class="h" width="1.289" height="195.964" transform="translate(243.344 69.297)"/><rect class="h" width="1.289" height="195.964" transform="translate(275.575 69.297)"/></g></g></svg>